HIERARCHY
ROOT Hips
{
	OFFSET -3.958830 18.904000 13.208200
	CHANNELS 6 Xposition Yposition Zposition Zrotation Yrotation Xrotation 
	JOINT LHipJoint
	{
		OFFSET 0.000000 0.000000 0.000000
		CHANNELS 3 Zrotation Yrotation Xrotation
		JOINT LeftUpLeg
		{
			OFFSET 1.800000 -1.400000 0.085000
			CHANNELS 3 Zrotation Yrotation Xrotation
			JOINT LeftLeg
			{
				OFFSET 2.215000 -6.000000 0.000000
				CHANNELS 3 Zrotation Yrotation Xrotation
				JOINT LeftFoot
				{
					OFFSET 2.500000 -6.900000 0.000000
					CHANNELS 3 Zrotation Yrotation Xrotation
					JOINT LeftToeBase
					{
						OFFSET 0.200000 -0.500000 1.950000
						CHANNELS 3 Zrotation Yrotation Xrotation
						End Site
						{
							OFFSET 0.000000 0.000000 0.000000
						}
					}
				}
			}
		}
	}
	JOINT RHipJoint
	{
		OFFSET 0.000000 0.000000 0.000000
		CHANNELS 3 Zrotation Yrotation Xrotation
		JOINT RightUpLeg
		{
			OFFSET -1.800000 -1.400000 0.085000
			CHANNELS 3 Zrotation Yrotation Xrotation
			JOINT RightLeg
			{
				OFFSET -2.215000 -6.000000 0.000000
				CHANNELS 3 Zrotation Yrotation Xrotation
				JOINT RightFoot
				{
					OFFSET -2.500000 -6.900000 0.000000
					CHANNELS 3 Zrotation Yrotation Xrotation
					JOINT RightToeBase
					{
						OFFSET -0.200000 -0.500000 1.950000
						CHANNELS 3 Zrotation Yrotation Xrotation
						End Site
						{
							OFFSET 0.000000 0.000000 0.000000
						}
					}
				}
			}
		}
	}
	JOINT LowerBack
	{
		OFFSET 0.000000 0.000000 0.000000
		CHANNELS 3 Zrotation Yrotation Xrotation
		JOINT Spine
		{
			OFFSET -0.087000 1.940000 -0.288900
			CHANNELS 3 Zrotation Yrotation Xrotation
			JOINT Spine1
			{
				OFFSET 0.000000 1.950000 0.060000
				CHANNELS 3 Zrotation Yrotation Xrotation
				JOINT Neck
				{
					OFFSET 0.000000 0.000000 0.000000
					CHANNELS 3 Zrotation Yrotation Xrotation
					JOINT Neck1
					{
						OFFSET 0.000000 1.600000 0.340000
						CHANNELS 3 Zrotation Yrotation Xrotation
						JOINT Head
						{
							OFFSET 0.000000 1.667000 -0.240000
							CHANNELS 3 Zrotation Yrotation Xrotation
							End Site
							{
								OFFSET 0.000000 0.000000 0.000000
							}
						}
					}
				}
				JOINT LeftShoulder
				{
					OFFSET 0.000000 0.000000 0.000000
					CHANNELS 3 Zrotation Yrotation Xrotation
					JOINT LeftArm
					{
						OFFSET 2.700000 1.550000 -0.730000
						CHANNELS 3 Zrotation Yrotation Xrotation
						JOINT LeftForeArm
						{
							OFFSET 5.450000 0.000000 0.000000
							CHANNELS 3 Zrotation Yrotation Xrotation
							JOINT LeftHand
							{
								OFFSET 3.450000 0.000000 0.000000
								CHANNELS 3 Zrotation Yrotation Xrotation
								JOINT LeftHandIndex1
								{
									OFFSET 0.750000 0.000000 0.000000
									CHANNELS 3 Zrotation Yrotation Xrotation
									End Site
									{
										OFFSET 0.000000 0.000000 0.000000
									}
								}
							}
						}
					}
				}
				JOINT RightShoulder
				{
					OFFSET 0.000000 0.000000 0.000000
					CHANNELS 3 Zrotation Yrotation Xrotation
					JOINT RightArm
					{
						OFFSET -2.700000 1.550000 -0.730000
						CHANNELS 3 Zrotation Yrotation Xrotation
						JOINT RightForeArm
						{
							OFFSET -5.450000 0.000000 0.000000
							CHANNELS 3 Zrotation Yrotation Xrotation
							JOINT RightHand
							{
								OFFSET -3.450000 0.000000 0.000000
								CHANNELS 3 Zrotation Yrotation Xrotation
								JOINT RightHandIndex1
								{
									OFFSET -0.750000 0.000000 0.000000
									CHANNELS 3 Zrotation Yrotation Xrotation
									End Site
									{
										OFFSET 0.000000 0.000000 0.000000
									}
								}
							}
						}
					}
				}
			}
		}
	}
}
MOTION
Frames: 4
Frame Time: 0.016667
0.814840 16.888300 -3.041790 2.957089 -9.523258 8.297502 -15.033254 12.104214 2.710819 13.289660 -3.411881 -26.766211 -5.190689 10.105456 35.637414 -1.133634 7.585231 2.083818 0.359640 0.040860 -0.294730 18.743707 -8.999913 4.366921 -8.968045 10.033026 -40.085415 26.829524 -12.330887 26.545157 -0.568169 -6.039004 2.659770 0.393280 1.028270 -0.027790 -4.572947 -1.714516 -7.584038 17.574457 -5.704499 10.877638 -11.600242 -2.360936 8.177565 0.161396 -11.847765 -9.059692 -21.574865 8.047808 17.867964 -0.744320 -1.133510 -15.091310 -13.390130 -3.957019 2.061658 -20.065155 2.554160 -4.442762 2.292785 -44.041908 -2.383780 -3.923799 2.626442 0.813050 0.492310 -0.580010 0.502700 12.755158 10.798325 6.242629 24.693534 3.573574 -5.064273 58.778726 62.376738 28.994992 1.270410 -1.634534 -0.841880 0.983380 0.380560 -0.257760 
0.916840 16.754670 -3.052460 2.844576 -10.111291 7.809560 -14.990988 12.037676 2.286095 14.525300 -2.766366 -23.875910 -4.718302 9.529201 32.903867 -1.201832 7.111748 2.272693 0.347860 0.004260 -0.245290 18.816680 -8.728928 4.962488 -15.620865 10.135863 -43.585833 35.102153 -15.884312 28.173036 -0.966167 -7.460659 2.187148 0.346610 0.974460 -0.033090 -4.751291 -1.636530 -7.765944 19.034867 -6.054893 12.295036 -12.899269 -2.186611 7.236557 0.738184 -11.793459 -9.393731 -21.510221 7.882641 18.396369 -1.748930 -0.617240 -16.925240 -14.800741 -5.356421 2.159509 -19.115774 0.312003 -2.847766 1.785872 -33.660564 -1.633886 -3.924132 2.476378 0.889310 0.440590 -0.517920 0.488950 13.005803 12.050574 6.684015 26.803053 4.812942 -4.642950 67.277442 61.403939 32.998906 1.382467 -1.529525 -0.850670 0.991320 0.364070 -0.283920 
1.003350 16.655900 -3.069000 2.377421 -9.790131 4.795696 -14.891539 12.116172 1.855081 16.247045 -2.064053 -18.957031 -4.233327 8.983040 30.415144 -1.124320 6.662941 2.404242 0.352130 -0.018530 -0.192570 18.888870 -8.643540 5.491890 -22.740979 8.771021 -43.537928 45.150578 -19.133299 26.903967 -1.381556 -8.586383 1.813539 0.231560 0.796120 0.009430 -4.963580 -1.526279 -8.043076 20.859918 -7.395040 16.995282 -14.790532 -2.690012 5.725693 1.639548 -11.315087 -10.025941 -21.275605 7.611915 21.832694 -2.250240 -0.122630 -19.602320 -17.475418 -7.821549 2.653468 -16.063078 -1.056662 -1.498745 1.874104 -23.616787 -1.267357 -3.835471 2.473634 0.975450 0.307990 -0.388750 0.446940 13.812708 14.005475 7.326197 28.446856 6.035604 -4.658409 78.253660 61.131803 39.098624 1.602194 -1.425888 -0.745180 0.848710 0.324000 -0.298860 
1.072450 16.539680 -3.115690 1.538797 -9.943843 2.444454 -14.859668 12.012379 1.612584 18.435722 -1.522133 -15.645595 -4.617531 9.254626 29.304795 -1.077373 6.713212 2.381583 0.295540 -0.116070 -0.144090 18.957376 -8.371779 6.026031 -29.397561 7.484296 -44.337281 54.945311 -21.525824 24.910773 -1.685993 -9.283244 1.610485 0.135830 0.692610 -0.017660 -5.093255 -1.455726 -8.347367 22.394510 -8.655547 21.015973 -16.131334 -3.128110 4.653795 2.439596 -10.794084 -10.763598 -21.122242 7.863888 25.387055 -3.607390 0.544590 -22.176210 -18.805823 -9.983607 3.631832 -13.804654 -0.837289 -0.563130 1.554215 -16.482504 -1.133565 -3.794722 2.353788 1.084630 0.211630 -0.317370 0.381490 13.543169 15.973041 7.520125 29.488458 8.847356 -4.263974 90.014564 61.145370 47.002566 1.779614 -1.207969 -0.758110 0.835480 0.339310 -0.350710 
